<?xml version="1.0" encoding="utf-8"?>
<!-- Generator: Adobe Illustrator 24.0.1, SVG Export Plug-In . SVG Version: 6.00 Build 0)  -->
<!DOCTYPE svg PUBLIC "-//W3C//DTD SVG 1.1//EN" "http://www.w3.org/Graphics/SVG/1.1/DTD/svg11.dtd" [
	<!ENTITY ns_extend "http://ns.adobe.com/Extensibility/1.0/">
	<!ENTITY ns_ai "http://ns.adobe.com/AdobeIllustrator/10.0/">
	<!ENTITY ns_graphs "http://ns.adobe.com/Graphs/1.0/">
	<!ENTITY ns_vars "http://ns.adobe.com/Variables/1.0/">
	<!ENTITY ns_imrep "http://ns.adobe.com/ImageReplacement/1.0/">
	<!ENTITY ns_sfw "http://ns.adobe.com/SaveForWeb/1.0/">
	<!ENTITY ns_custom "http://ns.adobe.com/GenericCustomNamespace/1.0/">
	<!ENTITY ns_adobe_xpath "http://ns.adobe.com/XPath/1.0/">
]>
<svg version="1.1" id="Layer_1" xmlns:x="&ns_extend;" xmlns:i="&ns_ai;" xmlns:graph="&ns_graphs;"
	 xmlns="http://www.w3.org/2000/svg" xmlns:xlink="http://www.w3.org/1999/xlink" x="0px" y="0px" viewBox="0 0 838.08 380.16"
	 enable-background="new 0 0 838.08 380.16" xml:space="preserve">
<metadata>
	<sfw  xmlns="&ns_sfw;">
		<slices></slices>
		<sliceSourceBounds  bottomLeftOrigin="true" height="344.37" width="810.84" x="147.26" y="-710.11"></sliceSourceBounds>
		<optimizationSettings>
			<targetSettings  fileFormat="JPEGFormat" targetSettingsID="0">
				
					<JPEGFormat  blurAmount="0" embedICCProfile="false" matteColor="#FFFFFF" noMatteColor="false" optimized="true" progressive="true" quality="100">
					</JPEGFormat>
			</targetSettings>
		</optimizationSettings>
	</sfw>
</metadata>
<path fill="#467FC1" d="M824.45,208.45c0,10.78,0,21.56,0,32.35c-0.01,28.84-21.38,52.42-50.15,55.29
	c-1.25,0.12-2.52,0.09-3.79,0.09c-22.05,0-44.1,0-66.15,0c-28.86,0-52.55-21.45-55.34-50.12c-0.09-0.96-0.08-1.94-0.08-2.91
	c-0.01-22.63-0.04-45.27,0-67.9c0.04-24.62,17.13-46.69,41.02-52.67c4.56-1.14,9.37-1.72,14.07-1.76
	c21.76-0.18,43.52-0.08,65.28-0.08c30.57,0,55.11,24.52,55.12,55.07C824.46,186.69,824.45,197.57,824.45,208.45 M736.72,237.91
	c4.85,0,9.71,0.03,14.56-0.01c9.05-0.06,14.47-5.03,14.68-14.03c0.24-10.29,0.25-20.58,0-30.87c-0.21-8.89-5.61-13.93-14.43-13.98
	c-10-0.06-20-0.07-30,0.01c-8.63,0.06-13.99,5.46-14.02,14.01c-0.04,10.29-0.04,20.58,0,30.87c0.03,8.4,5.38,13.83,13.77,13.97
	C726.43,237.97,731.58,237.9,736.72,237.91"/>
<rect x="653.14" y="310.03" fill="#93C244" width="167.1" height="52.6"/>
<path fill="#467FC1" d="M548.75,232.04c0,20.11,0.01,40.21,0,60.32c0,3.74-0.08,3.82-3.7,3.82c-16.99,0.01-33.99-0.06-50.99,0.06
	c-2.93,0.02-3.81-0.79-3.79-3.76c0.1-32.54,0.11-65.07-0.02-97.61c-0.01-3.01-0.57-6.26-1.8-8.98c-1.98-4.39-5.96-6.69-10.75-6.76
	c-11.07-0.17-22.14-0.2-33.21-0.01c-7.13,0.12-12.48,5.48-12.61,12.66c-0.21,11.07-0.2,22.15-0.01,33.21
	c0.12,7.43,5.56,12.72,13.06,12.85c9.71,0.16,19.42,0.12,29.14,0.02c2.53-0.02,3.47,0.87,3.47,3.37
	c-0.05,17.19-0.04,34.38-0.01,51.57c0.01,2.44-0.88,3.43-3.45,3.41c-16.12-0.08-32.26,0.33-48.36-0.13
	c-23.04-0.66-44.34-16.79-50.63-40.93c-1.11-4.27-1.71-8.79-1.75-13.2c-0.18-22.05-0.09-44.09-0.1-66.14
	c0-30.52,24.58-55.06,55.14-55.06h65.27c30.56,0,55.1,24.51,55.12,55.06C548.76,194.55,548.75,213.29,548.75,232.04"/>
<path fill="#467FC1" d="M127.45,296.18c-8.55,0-17.1-0.16-25.64,0.09c-2.93,0.08-3.99-1.03-4.84-3.6
	c-11.62-35.12-23.32-70.21-35.02-105.3C55.07,166.69,21.2,59.5,14.29,38.83c-1.34-4-0.9-4.62,3.24-4.62c16.9,0,33.8,0.06,50.7-0.06
	c2.53-0.02,3.49,0.87,4.25,3.17c8.61,26.02,44.27,138.53,53.01,164.51c0.36,1.07,1.31,1.94,1.98,2.91c0.74-1,1.79-1.9,2.17-3.02
	c8.74-25.97,17.44-51.96,26.04-77.98c0.73-2.19,1.62-3.05,4.03-3.04c17.09,0.11,34.19,0.05,51.28,0.06c3.88,0,4.24,0.52,2.98,4.28
	c-18.64,55.94-37.31,111.88-55.89,167.85c-0.83,2.51-1.94,3.45-4.71,3.38C144.74,296.04,136.1,296.18,127.45,296.18"/>
<path fill="#467FC1" d="M294.24,242.44c0,16.51,0,33.02-0.01,49.53c0,4.12-0.09,4.2-4.25,4.2c-16.9,0-33.79-0.06-50.69,0.05
	c-2.8,0.02-3.67-0.81-3.66-3.64c0.08-39.24,0.02-78.47,0.07-117.71c0.03-25.11,18.72-47.95,43.33-52.9
	c3.87-0.78,7.88-1.16,11.83-1.18c19.42-0.12,38.85-0.01,58.27-0.11c2.8-0.02,3.76,0.86,3.75,3.66c-0.09,17-0.09,33.99,0,50.99
	c0.01,2.73-0.78,3.75-3.66,3.73c-13.3-0.13-26.61-0.07-39.92-0.05c-9.92,0.01-15.05,5.15-15.05,15.06
	C294.24,210.2,294.24,226.32,294.24,242.44"/>
<path fill="#467FC1" d="M569.68,208.29c0-27.87,0-55.74,0-83.61c0-3.92,0.01-3.93,3.84-3.93c16.9,0,33.79,0,50.69,0
	c3.83,0,4.02,0.15,4.02,3.84c0.01,55.94,0.01,111.87,0,167.8c0,3.6-0.22,3.79-3.78,3.79c-16.9,0.01-33.79,0-50.69,0
	c-4.08,0-4.08-0.01-4.08-3.99C569.67,264.22,569.68,236.25,569.68,208.29"/>
<polygon fill="#93C244" points="531.55,34.14 125.49,34.14 141.86,89.32 531.55,89.32 "/>
<text transform="matrix(1 0 0 1.0716 97.5978 350.4653)" fill="#93C244" font-family="'Roboto-Regular'" font-size="38.7559px">passion for excellence</text>
<path fill="#F8EE5B" d="M585.03,66.76c-3.25,0.18-5.13-2.58-5.21-4.99c-0.09-2.67,2.4-5.07,5.09-5.08c2.77-0.01,5.07,2.27,5.09,5.03
	C590.01,64.6,587.89,66.76,585.03,66.76"/>
<path fill="#F16142" d="M586.26,50.8c0.03-2.85,2.21-5.04,5.02-5.04c2.85,0,5.13,2.29,5.09,5.13c-0.03,2.67-2.51,5.12-5.12,5.07
	C588.56,55.91,586.23,53.5,586.26,50.8"/>
<path fill="#2D2D71" d="M610.27,66.77c-2.86-0.01-5.02-2.17-5.02-5c0.01-2.8,2.25-5.07,5.02-5.08c2.83-0.01,4.98,2.27,5.09,5.13
	C615.46,64.05,613.09,67.08,610.27,66.77"/>
<path fill="#393088" d="M598.97,50.8c0.01-2.91,2.12-5.04,4.98-5.03c2.88,0.01,5.07,2.23,5.04,5.12c-0.03,2.74-2.38,5.08-5.08,5.06
	C601.21,55.92,598.96,53.58,598.97,50.8"/>
<path fill="#33B34A" d="M591.27,77.74c-2.9,0-5.01-2.12-5.02-5.01c-0.01-2.81,2.23-5.03,5.06-5c2.76,0.02,5.18,2.33,5.08,5.05
	C596.3,75.23,594.47,77.87,591.27,77.74"/>
<path fill="#4596D2" d="M603.98,77.74c-2.94,0.01-5.01-2.04-5.01-4.97c0-2.88,2.14-5.07,4.96-5.06c2.84,0.01,5.03,2.17,5.06,5.02
	C609.03,75.57,606.87,77.73,603.98,77.74"/>
<path fill="#FFFFFF" d="M604.15,102.98c0.38,0.01,0.63,0.25,0.62,0.61c-0.01,0.35-0.32,0.64-0.67,0.62
	c-0.33-0.02-0.63-0.33-0.61-0.65C603.5,103.23,603.79,102.97,604.15,102.98"/>
<path fill="#FFFFFF" d="M593.41,103.97c0.38,0.01,0.63,0.25,0.62,0.61c-0.01,0.34-0.32,0.64-0.67,0.62
	c-0.33-0.01-0.63-0.33-0.61-0.65C592.76,104.22,593.06,103.97,593.41,103.97"/>
<g>
	<path fill="#7DA740" d="M591.13,43.95c-2.17,0-3.93-1.69-3.9-3.73c0.03-2.08,1.81-3.83,3.89-3.84c2.15-0.02,3.82,1.65,3.83,3.82
		C594.96,42.4,593.38,43.95,591.13,43.95"/>
	<path fill="#7DA740" d="M619.61,70.78c-2.18,0.02-3.83-1.59-3.84-3.77c-0.02-2.25,1.5-3.81,3.74-3.84
		c2.19-0.03,3.86,1.58,3.87,3.74C623.4,69.05,621.72,70.77,619.61,70.78"/>
	<path fill="#7DA740" d="M582.21,74.38c2.18,0.04,3.83,1.72,3.76,3.87c-0.09,2.51-1.84,3.74-3.85,3.83
		c-2.12,0.09-3.77-1.81-3.72-4.04C578.44,75.9,580.07,74.34,582.21,74.38"/>
	<path fill="#7DA740" d="M619.58,51.31c2.16,0,3.81,1.65,3.81,3.81c0,2.16-1.67,3.81-3.83,3.8c-2.22-0.01-3.8-1.61-3.79-3.82
		C615.78,52.89,617.37,51.3,619.58,51.31"/>
	<path fill="#7DA740" d="M607.94,83.36c0.01,2.16-1.64,3.78-3.84,3.77c-2.27-0.01-3.78-1.52-3.77-3.79c0-2.15,1.59-3.8,3.68-3.83
		C606.17,79.49,607.93,81.21,607.94,83.36"/>
	<path fill="#7DA740" d="M592.38,87.81c-2.19-0.02-3.91-1.69-3.86-3.78c0.05-1.99,1.97-3.85,3.95-3.82
		c2.09,0.04,3.76,1.77,3.78,3.92C596.26,86.32,594.67,87.83,592.38,87.81"/>
	<path fill="#7DA740" d="M579.5,56.62c0.01,2.1-1.62,3.76-3.73,3.79c-2.11,0.03-4.02-1.81-3.99-3.86c0.02-1.95,2-3.89,3.94-3.87
		C577.76,52.71,579.48,54.5,579.5,56.62"/>
	<path fill="#7DA740" d="M614.37,81.25c-2.21,0.02-3.75-1.55-3.76-3.82c-0.01-2.16,1.64-3.87,3.76-3.9
		c2.02-0.04,3.79,1.77,3.81,3.89C618.21,79.56,616.55,81.23,614.37,81.25"/>
	<path fill="#7DA740" d="M577.06,46.18c-0.01-2.19,1.59-3.82,3.78-3.83c2.26-0.01,3.82,1.51,3.84,3.76
		c0.02,2.19-1.59,3.84-3.76,3.86C578.79,49.98,577.07,48.29,577.06,46.18"/>
	<path fill="#7DA740" d="M606.61,39.48c0,2.15-1.65,3.78-3.82,3.78c-2.17,0-3.82-1.66-3.79-3.81c0.03-2.17,1.69-3.82,3.83-3.8
		C605.02,35.66,606.61,37.28,606.61,39.48"/>
	<path fill="#7DA740" d="M575.69,64.72c2.25,0.01,3.84,1.57,3.82,3.76c-0.02,2.18-1.63,3.78-3.83,3.8c-2.06,0.02-3.9-1.79-3.88-3.81
		C571.81,66.34,573.51,64.71,575.69,64.72"/>
	<path fill="#7DA740" d="M609.28,45.34c0.01-2.22,1.55-3.7,3.84-3.68c2.28,0.02,3.76,1.51,3.76,3.79c-0.01,2.04-1.85,3.87-3.86,3.83
		C610.94,49.23,609.27,47.47,609.28,45.34"/>
	<path fill="#7DA740" d="M625.41,52.01c-0.01-1.44,1.15-2.66,2.57-2.68c1.34-0.03,2.67,1.25,2.72,2.6c0.04,1.3-1.42,2.73-2.76,2.7
		C626.6,54.61,625.42,53.38,625.41,52.01"/>
	<path fill="#7DA740" d="M626.12,59.78c-0.01-1.44,1.15-2.65,2.57-2.68c1.34-0.03,2.67,1.25,2.72,2.61c0.04,1.3-1.42,2.73-2.77,2.7
		C627.31,62.38,626.13,61.16,626.12,59.78"/>
	<path fill="#7DA740" d="M608.07,88.91c1.44,0.02,2.58,1.22,2.55,2.67c-0.03,1.39-1.24,2.62-2.55,2.59
		c-1.35-0.02-2.73-1.34-2.73-2.6C605.34,90.11,606.59,88.89,608.07,88.91"/>
	<path fill="#7DA740" d="M617.36,87.57c0.01,1.52-1.1,2.68-2.54,2.66c-1.45-0.02-2.58-1.21-2.56-2.69c0.01-1.44,1.13-2.6,2.52-2.62
		C616.2,84.9,617.35,86.08,617.36,87.57"/>
	<path fill="#7DA740" d="M577.12,88.24c-1.44,0.02-2.71-1.18-2.7-2.57c0.01-1.32,1.36-2.67,2.68-2.68c1.28-0.01,2.59,1.28,2.63,2.59
		C579.76,86.97,578.54,88.22,577.12,88.24"/>
	<path fill="#7DA740" d="M611.31,36.54c-1.41-0.02-2.63-1.18-2.63-2.51c-0.01-1.42,1.31-2.69,2.76-2.66
		c1.36,0.03,2.55,1.26,2.54,2.61C613.97,35.43,612.78,36.56,611.31,36.54"/>
	<path fill="#7DA740" d="M589.81,32.08c-0.01,1.49-1.15,2.59-2.64,2.55c-1.38-0.03-2.61-1.23-2.62-2.54
		c-0.01-1.46,1.23-2.63,2.77-2.61C588.75,29.51,589.82,30.63,589.81,32.08"/>
	<path fill="#7DA740" d="M598.4,30.12c-0.01,1.49-1.15,2.59-2.64,2.56c-1.38-0.03-2.61-1.23-2.62-2.54
		c-0.01-1.46,1.23-2.63,2.77-2.61C597.34,27.54,598.41,28.66,598.4,30.12"/>
	<path fill="#7DA740" d="M620.71,37.92c0.01,1.43-1.1,2.6-2.47,2.63c-1.49,0.03-2.66-1.18-2.63-2.71c0.02-1.41,1.17-2.58,2.54-2.59
		C619.52,35.23,620.7,36.46,620.71,37.92"/>
	<path fill="#7DA740" d="M571.71,82.41c-1.5,0.01-2.67-1.12-2.66-2.57c0-1.37,1.28-2.57,2.72-2.56c1.44,0.02,2.62,1.23,2.59,2.67
		C574.33,81.35,573.18,82.41,571.71,82.41"/>
	<path fill="#7DA740" d="M621.25,85.76c-1.49-0.03-2.6-1.17-2.55-2.65c0.05-1.46,1.23-2.53,2.73-2.47c1.39,0.05,2.58,1.26,2.56,2.6
		C623.97,84.63,622.71,85.79,621.25,85.76"/>
	<path fill="#7DA740" d="M569.04,50.89c-1.55,0.01-2.7-1.07-2.69-2.51c0.01-1.38,1.25-2.58,2.68-2.59c1.38-0.01,2.65,1.25,2.63,2.63
		C571.65,49.82,570.53,50.87,569.04,50.89"/>
	<path fill="#7DA740" d="M580.44,38.56c-1.39,0.01-2.65-1.14-2.68-2.46c-0.03-1.41,1.29-2.76,2.68-2.74
		c1.37,0.03,2.65,1.33,2.62,2.68C583.04,37.39,581.82,38.55,580.44,38.56"/>
	<path fill="#7DA740" d="M586.46,89.58c0,1.44-1.22,2.68-2.6,2.65c-1.34-0.03-2.62-1.36-2.6-2.72c0.02-1.3,1.29-2.56,2.61-2.59
		C585.26,86.9,586.46,88.14,586.46,89.58"/>
	<path fill="#7DA740" d="M569.24,55.94c-0.01,1.42-1.17,2.65-2.51,2.66c-1.37,0.01-2.62-1.28-2.62-2.69c0-1.5,1.14-2.62,2.64-2.58
		C568.19,53.37,569.25,54.47,569.24,55.94"/>
	<path fill="#7DA740" d="M606.84,30.57c0,1.47-1.06,2.58-2.5,2.6c-1.44,0.02-2.61-1.16-2.61-2.64c0-1.38,1.31-2.69,2.65-2.65
		C605.73,27.91,606.83,29.13,606.84,30.57"/>
	<path fill="#7DA740" d="M566.71,61.22c1.53,0.03,2.56,1.11,2.52,2.67c-0.04,1.5-1.05,2.45-2.61,2.43
		c-1.53-0.02-2.54-1.02-2.53-2.52C564.11,62.25,565.18,61.19,566.71,61.22"/>
	<path fill="#7DA740" d="M573.92,37.86c1.55,0,2.56,0.95,2.59,2.44c0.03,1.52-1.04,2.62-2.56,2.63c-1.42,0.01-2.6-1.13-2.61-2.51
		C571.32,38.86,572.33,37.86,573.92,37.86"/>
	<path fill="#7DA740" d="M626.08,43.71c0.02,1.54-1.04,2.61-2.57,2.59c-1.44-0.02-2.56-1.14-2.54-2.56c0.02-1.49,1.03-2.54,2.5-2.58
		C625.01,41.12,626.06,42.14,626.08,43.71"/>
	<path fill="#7DA740" d="M626.05,67.65c0-1.59,1-2.6,2.55-2.59c1.38,0.01,2.52,1.18,2.52,2.59c0,1.53-1.06,2.57-2.62,2.55
		C626.97,70.18,626.05,69.22,626.05,67.65"/>
	<path fill="#7DA740" d="M590.85,95.61c-1.39,0-2.53-1.17-2.52-2.59c0.01-1.42,1.27-2.69,2.63-2.66c1.35,0.03,2.44,1.25,2.42,2.7
		C593.38,94.52,592.29,95.61,590.85,95.61"/>
	<path fill="#7DA740" d="M628.77,75.21c-0.01,1.58-1.04,2.56-2.63,2.52c-1.41-0.03-2.44-1.09-2.44-2.51c0-1.51,1.12-2.63,2.61-2.6
		C627.76,72.64,628.78,73.71,628.77,75.21"/>
	<path fill="#7DA740" d="M567.19,74.14c-1.54-0.02-2.48-1-2.46-2.56c0.03-1.54,1.06-2.59,2.51-2.55c1.53,0.05,2.6,1.16,2.57,2.65
		C569.77,73.15,568.69,74.16,567.19,74.14"/>
	<path fill="#7DA740" d="M598.48,100.34c-0.01,1.02-1.02,1.98-2.06,1.96c-1.01-0.02-1.89-0.94-1.89-1.97c0-1.07,0.96-2.01,2.01-1.97
		C597.51,98.39,598.49,99.39,598.48,100.34"/>
	<path fill="#7DA740" d="M588.45,98.27c0.01,1.02-0.88,1.98-1.86,2.02c-1.03,0.04-2.06-0.92-2.09-1.93
		c-0.02-1.01,0.99-2.02,2.01-2.01C587.52,96.34,588.44,97.26,588.45,98.27"/>
	<path fill="#7DA740" d="M560.85,52.65c-1.04-0.01-1.9-0.89-1.88-1.93c0.02-0.99,0.96-1.94,1.94-1.96c0.98-0.02,2.03,1.02,2.02,2
		C562.91,51.79,561.96,52.66,560.85,52.65"/>
	<path fill="#7DA740" d="M563.67,78.17c1.05-0.01,1.92,0.84,1.94,1.88c0.02,1-1,2.02-2,2.01c-0.97-0.01-1.93-0.96-1.95-1.94
		C561.64,79.08,562.57,78.18,563.67,78.17"/>
	<path fill="#7DA740" d="M559.82,59.15c0.95-0.01,1.75,0.85,1.77,1.9c0.02,1.06-0.81,1.88-1.91,1.91c-1.16,0.03-2.05-0.79-2.04-1.89
		C557.64,59.98,558.57,59.16,559.82,59.15"/>
	<path fill="#7DA740" d="M581.09,28.54c0.01,1.13-0.73,1.91-1.84,1.93c-1.06,0.02-2.04-0.91-2.05-1.94c-0.01-0.89,1.03-1.98,1.92-2
		C580.13,26.51,581.07,27.47,581.09,28.54"/>
	<path fill="#7DA740" d="M634.87,51.3c1.16,0.02,1.93,0.77,1.91,1.86c-0.01,1.06-0.97,1.94-2.06,1.9c-1.01-0.04-1.92-1-1.89-1.98
		C632.88,52.07,633.78,51.28,634.87,51.3"/>
	<path fill="#7DA740" d="M635.77,60.74c1.16,0.02,1.93,0.77,1.91,1.86c-0.01,1.06-0.97,1.94-2.06,1.9c-1.01-0.04-1.92-1-1.89-1.98
		C633.78,61.51,634.68,60.73,635.77,60.74"/>
	<path fill="#7DA740" d="M569.68,86.14c1.13-0.02,1.95,0.72,1.99,1.8c0.04,1.04-0.81,1.95-1.84,1.99c-1.08,0.04-2.1-0.88-2.09-1.89
		C567.74,87.06,568.66,86.16,569.68,86.14"/>
	<path fill="#7DA740" d="M616.14,93.03c1,0.04,1.91,1.1,1.84,2.13c-0.06,1.03-0.96,1.83-2.02,1.79c-1-0.04-1.93-0.99-1.9-1.95
		C614.09,94.07,615.23,92.99,616.14,93.03"/>
	<path fill="#7DA740" d="M578.02,96.28c-1.08,0-1.85-0.8-1.84-1.94c0.01-1.09,0.82-1.97,1.85-2c1.01-0.02,1.89,0.86,1.92,1.92
		C579.97,95.41,579.13,96.28,578.02,96.28"/>
	<path fill="#7DA740" d="M615.34,29.11c0.04-1.01,0.98-1.92,1.96-1.91c0.92,0.01,1.9,1.07,1.88,2.02c-0.02,1.08-0.99,1.98-2.06,1.91
		C616.05,31.07,615.29,30.2,615.34,29.11"/>
	<path fill="#7DA740" d="M636.15,72.81c0,1.15-0.73,1.94-1.81,1.97c-1.06,0.03-1.96-0.91-1.94-2.01c0.02-1.02,0.92-1.94,1.92-1.94
		C635.33,70.83,636.15,71.72,636.15,72.81"/>
	<path fill="#7DA740" d="M569.68,33.96c-0.01-1.11,0.87-2.08,1.88-2.07c0.97,0.01,1.87,0.96,1.87,1.99c0,1.08-0.83,1.95-1.86,1.96
		C570.48,35.86,569.69,35.07,569.68,33.96"/>
	<path fill="#7DA740" d="M604.57,99.05c0.01-1.08,0.83-1.97,1.83-1.99c0.95-0.01,1.92,0.96,1.93,1.95c0.01,1.13-0.82,1.97-1.95,1.96
		C605.22,100.98,604.56,100.27,604.57,99.05"/>
	<path fill="#7DA740" d="M610.62,25.29c-0.02,1.14-0.76,1.86-1.91,1.85c-1.06-0.01-1.94-0.85-1.95-1.88
		c-0.02-0.88,1.05-1.97,1.94-1.99C609.77,23.25,610.64,24.17,610.62,25.29"/>
	<path fill="#7DA740" d="M590.71,24.5c0,1.1-0.82,1.95-1.86,1.95c-1.04-0.01-1.88-0.85-1.91-1.93c-0.02-1.11,0.87-2.04,1.94-2.02
		C589.88,22.51,590.7,23.41,590.71,24.5"/>
	<path fill="#7DA740" d="M627.41,35.51c0,1.1-0.77,1.9-1.87,1.92c-1.09,0.02-2.02-0.88-2.01-1.94c0.01-1.03,0.88-1.84,1.97-1.84
		C626.63,33.65,627.41,34.41,627.41,35.51"/>
	<path fill="#7DA740" d="M562.29,70.49c-0.02,1.1-0.81,1.86-1.91,1.84c-1.02-0.02-1.95-0.92-1.96-1.9
		c-0.01-1.08,0.91-1.92,2.05-1.88C561.59,68.59,562.31,69.36,562.29,70.49"/>
	<path fill="#7DA740" d="M633.46,43.53c0.01,1.15-0.72,1.9-1.87,1.9c-1.1,0-1.86-0.77-1.9-1.92c-0.03-1.09,0.74-1.86,1.9-1.9
		C632.67,41.57,633.45,42.37,633.46,43.53"/>
	<path fill="#7DA740" d="M632.32,82.14c-0.02,1.04-0.95,1.96-1.94,1.92c-1-0.03-1.86-1-1.84-2.04c0.03-1.12,0.82-1.86,1.95-1.84
		C631.6,80.21,632.35,81.01,632.32,82.14"/>
	<path fill="#7DA740" d="M623.61,87.68c0.99-0.03,1.96,0.9,1.98,1.89c0.03,1.09-0.76,1.96-1.82,2c-1.11,0.04-1.9-0.71-1.95-1.84
		C621.79,88.66,622.61,87.71,623.61,87.68"/>
	<path fill="#7DA740" d="M597,23.2c0.01-1.1,0.75-1.94,1.73-1.97c1.01-0.04,1.99,0.97,1.98,2.02c-0.02,1.06-0.87,1.86-1.97,1.85
		C597.66,25.08,596.99,24.35,597,23.2"/>
	<path fill="#7DA740" d="M562.95,41.54c-0.02-1.22,0.62-1.87,1.84-1.87c1.15,0,1.85,0.65,1.89,1.75c0.04,1.08-0.75,1.94-1.84,1.98
		C563.74,43.44,562.97,42.68,562.95,41.54"/>
	<path fill="#7DA740" d="M602.18,93.7c0.01,1.52-1.1,2.68-2.54,2.66c-1.45-0.02-2.58-1.21-2.56-2.69c0.02-1.44,1.13-2.6,2.52-2.62
		C601.02,91.03,602.17,92.22,602.18,93.7"/>
	<path fill="#7DA740" d="M639.57,54.58c0.38,0.01,0.63,0.25,0.62,0.61c-0.01,0.34-0.32,0.64-0.67,0.62
		c-0.33-0.01-0.63-0.33-0.61-0.65C638.92,54.83,639.21,54.57,639.57,54.58"/>
	<path fill="#7DA740" d="M639.92,65.43c0.38,0.01,0.63,0.25,0.62,0.61c-0.01,0.35-0.32,0.64-0.67,0.62
		c-0.33-0.01-0.63-0.33-0.61-0.65C639.27,65.68,639.56,65.43,639.92,65.43"/>
	<path fill="#7DA740" d="M637.32,76.23c0.38,0.01,0.63,0.25,0.62,0.61c-0.01,0.34-0.32,0.64-0.67,0.62
		c-0.33-0.01-0.63-0.33-0.61-0.65C636.67,76.47,636.97,76.22,637.32,76.23"/>
	<path fill="#7DA740" d="M632.69,86.4c0.38,0.01,0.63,0.25,0.62,0.61c0,0.34-0.32,0.64-0.67,0.62c-0.33-0.01-0.63-0.33-0.61-0.65
		C632.04,86.65,632.33,86.4,632.69,86.4"/>
	<path fill="#7DA740" d="M624.22,93.97c0.38,0.01,0.63,0.25,0.62,0.61c-0.01,0.35-0.32,0.64-0.67,0.62
		c-0.33-0.02-0.63-0.33-0.61-0.65C623.57,94.23,623.86,93.97,624.22,93.97"/>
	<path fill="#7DA740" d="M614.83,99.83c0.38,0.01,0.63,0.25,0.62,0.61c-0.01,0.35-0.32,0.64-0.67,0.62
		c-0.33-0.01-0.63-0.33-0.61-0.65C614.18,100.08,614.47,99.82,614.83,99.83"/>
	<path fill="#7DA740" d="M582.55,100.62c0.38,0.01,0.63,0.25,0.62,0.6c0,0.35-0.32,0.64-0.67,0.62c-0.33-0.02-0.63-0.33-0.61-0.65
		C581.9,100.87,582.19,100.62,582.55,100.62"/>
	<path fill="#7DA740" d="M572.93,95.54c0.38,0.01,0.63,0.25,0.62,0.61c-0.01,0.34-0.32,0.64-0.67,0.62
		c-0.33-0.01-0.63-0.33-0.61-0.65C572.27,95.79,572.57,95.53,572.93,95.54"/>
	<path fill="#7DA740" d="M564.75,87.91c0.38,0.01,0.63,0.25,0.62,0.6c-0.01,0.35-0.32,0.64-0.67,0.62
		c-0.33-0.02-0.63-0.33-0.61-0.65C564.1,88.16,564.39,87.9,564.75,87.91"/>
	<path fill="#7DA740" d="M558.38,78.99c0.38,0.01,0.63,0.25,0.62,0.61c-0.01,0.35-0.32,0.64-0.67,0.62
		c-0.33-0.01-0.63-0.33-0.61-0.65C557.73,79.24,558.03,78.98,558.38,78.99"/>
	<path fill="#7DA740" d="M555.84,68.03c0.38,0.01,0.63,0.25,0.62,0.61c0,0.34-0.32,0.64-0.67,0.62c-0.33-0.01-0.63-0.33-0.61-0.65
		C555.18,68.28,555.48,68.02,555.84,68.03"/>
	<path fill="#7DA740" d="M555.66,55.94c0.38,0.01,0.63,0.25,0.62,0.61c0,0.35-0.32,0.64-0.67,0.62c-0.33-0.02-0.63-0.33-0.61-0.65
		C555.01,56.19,555.3,55.93,555.66,55.94"/>
	<path fill="#7DA740" d="M558.43,45.46c0.38,0.01,0.63,0.25,0.63,0.61c-0.01,0.35-0.32,0.64-0.67,0.62
		c-0.33-0.01-0.63-0.33-0.61-0.64C557.78,45.71,558.07,45.46,558.43,45.46"/>
	<path fill="#7DA740" d="M562.55,35.76c0.38,0.01,0.63,0.25,0.62,0.61c-0.01,0.35-0.32,0.64-0.67,0.62
		c-0.33-0.02-0.63-0.33-0.61-0.65C561.9,36.01,562.19,35.76,562.55,35.76"/>
	<path fill="#7DA740" d="M570.96,28.41c0.38,0.01,0.63,0.25,0.62,0.61c-0.01,0.35-0.32,0.64-0.67,0.62
		c-0.33-0.01-0.63-0.33-0.61-0.65C570.31,28.66,570.6,28.4,570.96,28.41"/>
	<path fill="#7DA740" d="M580.43,22.33c0.38,0.01,0.63,0.25,0.62,0.61c0,0.34-0.32,0.64-0.67,0.62c-0.33-0.01-0.63-0.33-0.61-0.65
		C579.78,22.58,580.08,22.32,580.43,22.33"/>
	<path fill="#7DA740" d="M590.72,19.28c0.38,0.01,0.63,0.25,0.62,0.61c-0.01,0.35-0.32,0.64-0.67,0.62
		c-0.33-0.01-0.63-0.33-0.61-0.65C590.07,19.54,590.37,19.28,590.72,19.28"/>
	<path fill="#7DA740" d="M601.87,18.26c0.38,0.01,0.63,0.25,0.62,0.61c-0.01,0.35-0.32,0.64-0.67,0.62
		c-0.33-0.01-0.63-0.33-0.61-0.65C601.22,18.51,601.51,18.25,601.87,18.26"/>
	<path fill="#7DA740" d="M612.76,21.85c0.38,0.01,0.63,0.25,0.62,0.61c-0.01,0.34-0.32,0.64-0.67,0.62
		c-0.33-0.01-0.63-0.33-0.61-0.65C612.1,22.1,612.4,21.84,612.76,21.85"/>
	<path fill="#7DA740" d="M622.48,26.91c0.38,0.01,0.63,0.25,0.62,0.6c-0.01,0.35-0.32,0.64-0.67,0.62
		c-0.33-0.02-0.63-0.33-0.61-0.65C621.83,27.16,622.12,26.9,622.48,26.91"/>
	<path fill="#7DA740" d="M630.47,34.29c0.38,0.01,0.63,0.25,0.62,0.61c-0.01,0.34-0.32,0.64-0.67,0.62
		c-0.33-0.01-0.63-0.33-0.61-0.65C629.82,34.54,630.12,34.28,630.47,34.29"/>
	<path fill="#7DA740" d="M637.07,43.73c0.38,0.01,0.63,0.25,0.62,0.61c-0.01,0.34-0.32,0.64-0.67,0.62
		c-0.33-0.01-0.63-0.33-0.61-0.65C636.42,43.98,636.71,43.72,637.07,43.73"/>
</g>
</svg>
